<svg width="54" height="340" viewBox="0 0 54 340" fill="none" xmlns="http://www.w3.org/2000/svg">
<path d="M29.854 311.234C30.7633 311.527 31.438 311.975 31.878 312.576C32.3327 313.177 32.56 313.903 32.56 314.754C32.56 315.605 32.3767 316.375 32.01 317.064C31.6433 317.739 31.0493 318.281 30.228 318.692C29.4067 319.103 28.358 319.308 27.082 319.308C26.246 319.308 25.4613 319.22 24.728 319.044C24.0093 318.883 23.4007 318.677 22.902 318.428L23.936 316.184C24.86 316.609 25.85 316.822 26.906 316.822C27.7127 316.822 28.336 316.653 28.776 316.316C29.216 315.979 29.436 315.495 29.436 314.864C29.436 314.409 29.348 314.035 29.172 313.742C29.0107 313.434 28.7027 313.199 28.248 313.038C27.808 312.862 27.192 312.774 26.4 312.774H25.344L25.542 310.574H27.258C27.9767 310.266 28.4827 309.936 28.776 309.584C29.0693 309.232 29.216 308.814 29.216 308.33C29.216 307.919 29.0547 307.582 28.732 307.318C28.424 307.039 27.9767 306.9 27.39 306.9C26.378 306.9 25.3807 307.296 24.398 308.088L22.858 306.394C24.178 305.133 25.7473 304.502 27.566 304.502C28.5927 304.502 29.458 304.656 30.162 304.964C30.866 305.257 31.394 305.675 31.746 306.218C32.098 306.761 32.274 307.377 32.274 308.066C32.274 308.785 32.054 309.415 31.614 309.958C31.1887 310.486 30.602 310.911 29.854 311.234Z" fill="#536081"/>
<circle cx="27" cy="313" r="26" transform="rotate(-90 27 313)" stroke="#536081" stroke-width="2"/>
<path d="M32.56 165.506C32.56 166.225 32.4133 166.943 32.12 167.662C31.8267 168.366 31.306 169.18 30.558 170.104C29.81 171.028 28.7613 172.157 27.412 173.492H32.516V176H22.836V174.57C24.6107 172.781 25.9527 171.365 26.862 170.324C27.786 169.268 28.424 168.417 28.776 167.772C29.128 167.112 29.304 166.503 29.304 165.946C29.304 165.359 29.1353 164.905 28.798 164.582C28.4607 164.259 27.9913 164.098 27.39 164.098C26.8913 164.098 26.4073 164.215 25.938 164.45C25.4833 164.67 24.9847 165 24.442 165.44L22.858 163.548C23.5473 162.903 24.3173 162.397 25.168 162.03C26.0187 161.663 26.8987 161.48 27.808 161.48C28.732 161.48 29.546 161.627 30.25 161.92C30.9687 162.213 31.5333 162.661 31.944 163.262C32.3547 163.863 32.56 164.611 32.56 165.506Z" fill="#536081"/>
<circle cx="27" cy="170" r="26" transform="rotate(-90 27 170)" stroke="#536081" stroke-width="2"/>
<path d="M30.074 30.492H32.714V33H23.562V30.492H27.038V21.934L24.376 23.188L23.166 21.472L27.038 18.744H30.074V30.492Z" fill="#536081"/>
<circle cx="27" cy="27" r="26" transform="rotate(-90 27 27)" stroke="#536081" stroke-width="2"/>
<rect x="24" y="287" width="91" height="6" transform="rotate(-90 24 287)" fill="#536081"/>
<rect x="24" y="144" width="91" height="6" transform="rotate(-90 24 144)" fill="#536081"/>
</svg>
