<svg width="287" height="761" viewBox="0 0 287 761" fill="none" xmlns="http://www.w3.org/2000/svg">
<rect x="-235.432" width="591.213" height="547.679" rx="30" transform="rotate(27.9346 -235.432 0)" fill="#363636" fill-opacity="0.1"/>
<circle cx="-0.484868" cy="364.215" r="3.5" transform="rotate(30.0113 -0.484868 364.215)" fill="#6099BD"/>
<circle cx="12.504" cy="371.718" r="3.5" transform="rotate(30.0113 12.504 371.718)" fill="#6099BD"/>
<circle cx="6.50195" cy="382.109" r="3.5" transform="rotate(30.0113 6.50195 382.109)" fill="#6099BD"/>
<circle cx="0.499873" cy="392.5" r="3.5" transform="rotate(30.0113 0.499873 392.5)" fill="#6099BD"/>
<circle cx="25.4929" cy="379.22" r="3.5" transform="rotate(30.0113 25.4929 379.22)" fill="#6099BD"/>
<circle cx="19.4908" cy="389.611" r="3.5" transform="rotate(30.0113 19.4908 389.611)" fill="#6099BD"/>
<circle cx="13.4888" cy="400.003" r="3.5" transform="rotate(30.0113 13.4888 400.003)" fill="#6099BD"/>
<circle cx="7.48681" cy="410.394" r="3.5" transform="rotate(30.0113 7.48681 410.394)" fill="#6099BD"/>
<circle cx="1.48474" cy="420.785" r="3.5" transform="rotate(30.0113 1.48474 420.785)" fill="#6099BD"/>
<circle cx="38.4818" cy="386.723" r="3.5" transform="rotate(30.0113 38.4818 386.723)" fill="#6099BD"/>
<circle cx="32.4797" cy="397.114" r="3.5" transform="rotate(30.0113 32.4797 397.114)" fill="#6099BD"/>
<circle cx="26.4777" cy="407.505" r="3.5" transform="rotate(30.0113 26.4777 407.505)" fill="#6099BD"/>
<circle cx="20.4757" cy="417.896" r="3.5" transform="rotate(30.0113 20.4757 417.896)" fill="#6099BD"/>
<circle cx="14.4736" cy="428.287" r="3.5" transform="rotate(30.0113 14.4736 428.287)" fill="#6099BD"/>
</svg>
