<svg width="36" height="20" viewBox="0 0 36 20" fill="none" xmlns="http://www.w3.org/2000/svg">
<path d="M27.7801 11.1111H7.78006C7.15783 11.1111 6.66895 10.6222 6.66895 10C6.66895 9.3778 7.15783 8.88892 7.78006 8.88892H27.7801C28.4023 8.88892 28.8912 9.3778 28.8912 10C28.8912 10.6222 28.4023 11.1111 27.7801 11.1111Z" fill="white"/>
<path d="M13.3357 18.8889C13.1899 18.8906 13.0455 18.8619 12.9115 18.8045C12.7776 18.7471 12.6571 18.6623 12.5579 18.5555L4.78011 10.7778C4.33567 10.3333 4.33567 9.64442 4.78011 9.19997L12.5579 1.44442C13.0023 0.999973 13.6912 0.999973 14.1357 1.44442C14.5801 1.88886 14.5801 2.57775 14.1357 3.0222L7.13567 10.0222L14.1357 17.0222C14.5801 17.4666 14.5801 18.1555 14.1357 18.6C13.9134 18.8222 13.6246 18.9333 13.3579 18.9333L13.3357 18.8889Z" fill="white"/>
</svg>
