<svg width="67" height="55" viewBox="0 0 67 55" fill="none" xmlns="http://www.w3.org/2000/svg">
<circle cx="3.5" cy="3.5" r="3.5" fill="white" fill-opacity="0.9"/>
<circle cx="3.5" cy="15.5" r="3.5" fill="white" fill-opacity="0.9"/>
<circle cx="3.5" cy="27.5" r="3.5" fill="white" fill-opacity="0.9"/>
<circle cx="3.5" cy="39.5" r="3.5" fill="white" fill-opacity="0.9"/>
<circle cx="3.5" cy="51.5" r="3.5" fill="white" fill-opacity="0.9"/>
<circle cx="18.5" cy="3.5" r="3.5" fill="white" fill-opacity="0.9"/>
<circle cx="18.5" cy="15.5" r="3.5" fill="white" fill-opacity="0.9"/>
<circle cx="18.5" cy="27.5" r="3.5" fill="white" fill-opacity="0.9"/>
<circle cx="18.5" cy="39.5" r="3.5" fill="white" fill-opacity="0.9"/>
<circle cx="18.5" cy="51.5" r="3.5" fill="white" fill-opacity="0.9"/>
<circle cx="33.5" cy="3.5" r="3.5" fill="white" fill-opacity="0.9"/>
<circle cx="33.5" cy="15.5" r="3.5" fill="white" fill-opacity="0.9"/>
<circle cx="33.5" cy="27.5" r="3.5" fill="white" fill-opacity="0.9"/>
<circle cx="33.5" cy="39.5" r="3.5" fill="white" fill-opacity="0.9"/>
<circle cx="33.5" cy="51.5" r="3.5" fill="white" fill-opacity="0.9"/>
<circle cx="48.5" cy="3.5" r="3.5" fill="white" fill-opacity="0.9"/>
<circle cx="48.5" cy="15.5" r="3.5" fill="white" fill-opacity="0.9"/>
<circle cx="48.5" cy="27.5" r="3.5" fill="white" fill-opacity="0.9"/>
<circle cx="48.5" cy="39.5" r="3.5" fill="white" fill-opacity="0.9"/>
<circle cx="48.5" cy="51.5" r="3.5" fill="white" fill-opacity="0.9"/>
<circle cx="63.5" cy="3.5" r="3.5" fill="white" fill-opacity="0.9"/>
<circle cx="63.5" cy="15.5" r="3.5" fill="white" fill-opacity="0.9"/>
<circle cx="63.5" cy="27.5" r="3.5" fill="white" fill-opacity="0.9"/>
<circle cx="63.5" cy="39.5" r="3.5" fill="white" fill-opacity="0.9"/>
<circle cx="63.5" cy="51.5" r="3.5" fill="white" fill-opacity="0.9"/>
</svg>
