<svg width="41" height="41" viewBox="0 0 41 41" fill="none" xmlns="http://www.w3.org/2000/svg">
<path d="M7.80376 0.5C3.7578 0.5 0.5 3.7578 0.5 7.80376V33.1963C0.5 37.2422 3.7578 40.5 7.80376 40.5H21.5663V24.8625H17.4313V19.2325H21.5663V14.4225C21.5663 10.6435 24.0094 7.17376 29.6375 7.17376C31.9162 7.17376 33.6013 7.39252 33.6013 7.39252L33.4688 12.65C33.4688 12.65 31.7502 12.6338 29.875 12.6338C27.8454 12.6338 27.52 13.5689 27.52 15.1213V19.2326H33.63L33.3638 24.8626H27.52V40.5001H33.1962C37.2422 40.5001 40.5 37.2423 40.5 33.1963V7.8038C40.5 3.75784 37.2422 0.50004 33.1962 0.50004H7.80372L7.80376 0.5Z" fill="white"/>
</svg>
