<svg width="41" height="41" viewBox="0 0 41 41" fill="none" xmlns="http://www.w3.org/2000/svg">
<g clip-path="url(#clip0_323_174)">
<path d="M20.4999 13.8333C18.7318 13.8333 17.0361 14.5357 15.7859 15.7859C14.5356 17.0362 13.8333 18.7319 13.8333 20.5C13.8333 22.2681 14.5356 23.9638 15.7859 25.214C17.0361 26.4643 18.7318 27.1667 20.4999 27.1667C22.268 27.1667 23.9637 26.4643 25.214 25.214C26.4642 23.9638 27.1666 22.2681 27.1666 20.5C27.1666 18.7319 26.4642 17.0362 25.214 15.7859C23.9637 14.5357 22.268 13.8333 20.4999 13.8333Z" fill="white"/>
<path fill-rule="evenodd" clip-rule="evenodd" d="M12.5 0.5C9.3174 0.5 6.26516 1.76428 4.01472 4.01472C1.76428 6.26516 0.5 9.3174 0.5 12.5L0.5 28.5C0.5 31.6826 1.76428 34.7348 4.01472 36.9853C6.26516 39.2357 9.3174 40.5 12.5 40.5H28.5C31.6826 40.5 34.7348 39.2357 36.9853 36.9853C39.2357 34.7348 40.5 31.6826 40.5 28.5V12.5C40.5 9.3174 39.2357 6.26516 36.9853 4.01472C34.7348 1.76428 31.6826 0.5 28.5 0.5L12.5 0.5ZM11.1667 20.5C11.1667 18.0246 12.15 15.6507 13.9003 13.9003C15.6507 12.15 18.0246 11.1667 20.5 11.1667C22.9754 11.1667 25.3493 12.15 27.0997 13.9003C28.85 15.6507 29.8333 18.0246 29.8333 20.5C29.8333 22.9754 28.85 25.3493 27.0997 27.0997C25.3493 28.85 22.9754 29.8333 20.5 29.8333C18.0246 29.8333 15.6507 28.85 13.9003 27.0997C12.15 25.3493 11.1667 22.9754 11.1667 20.5ZM29.8333 11.1667H32.5V8.5H29.8333V11.1667Z" fill="white"/>
</g>
<defs>
<clipPath id="clip0_323_174">
<rect width="40" height="40" fill="white" transform="translate(0.5 0.5)"/>
</clipPath>
</defs>
</svg>
