<svg width="41" height="41" viewBox="0 0 41 41" fill="none" xmlns="http://www.w3.org/2000/svg">
<path d="M36.25 0.25C37.4435 0.25 38.5881 0.724106 39.432 1.56802C40.2759 2.41193 40.75 3.55653 40.75 4.75V36.25C40.75 37.4435 40.2759 38.5881 39.432 39.432C38.5881 40.2759 37.4435 40.75 36.25 40.75H4.75C3.55653 40.75 2.41193 40.2759 1.56802 39.432C0.724106 38.5881 0.25 37.4435 0.25 36.25V4.75C0.25 3.55653 0.724106 2.41193 1.56802 1.56802C2.41193 0.724106 3.55653 0.25 4.75 0.25H36.25ZM35.125 35.125V23.2C35.125 21.2546 34.3522 19.389 32.9766 18.0134C31.601 16.6378 29.7354 15.865 27.79 15.865C25.8775 15.865 23.65 17.035 22.57 18.79V16.2925H16.2925V35.125H22.57V24.0325C22.57 22.3 23.965 20.8825 25.6975 20.8825C26.5329 20.8825 27.3341 21.2144 27.9249 21.8051C28.5156 22.3959 28.8475 23.1971 28.8475 24.0325V35.125H35.125ZM8.98 12.76C9.98252 12.76 10.944 12.3618 11.6529 11.6529C12.3618 10.944 12.76 9.98252 12.76 8.98C12.76 6.8875 11.0725 5.1775 8.98 5.1775C7.97151 5.1775 7.00433 5.57812 6.29123 6.29123C5.57812 7.00433 5.1775 7.97151 5.1775 8.98C5.1775 11.0725 6.8875 12.76 8.98 12.76ZM12.1075 35.125V16.2925H5.875V35.125H12.1075Z" fill="white"/>
</svg>
