<svg width="56" height="39" viewBox="0 0 56 39" fill="none" xmlns="http://www.w3.org/2000/svg">
<path d="M54.9533 8.50006C54.9533 8.50006 54.4171 4.7085 52.7636 3.04475C50.6702 0.855059 48.3258 0.841309 47.2533 0.714121C39.5636 0.153809 28.0136 0.153809 28.0136 0.153809H27.993C27.993 0.153809 16.4465 0.153809 8.75334 0.714121C7.6774 0.844746 5.33646 0.855059 3.24303 3.04475C1.58959 4.7085 1.06365 8.50006 1.06365 8.50006C1.06365 8.50006 0.51709 12.9482 0.51709 17.4066V21.5763C0.51709 26.0244 1.06365 30.4829 1.06365 30.4829C1.06365 30.4829 1.5999 34.2744 3.24303 35.9416C5.33646 38.1313 8.08646 38.0591 9.31365 38.2929C13.7171 38.7122 28.0171 38.8394 28.0171 38.8394C28.0171 38.8394 39.5774 38.8188 47.2671 38.2688C48.343 38.1416 50.684 38.1279 52.7774 35.9382C54.4308 34.2744 54.9671 30.4794 54.9671 30.4794C54.9671 30.4794 55.5136 26.0313 55.5136 21.5729V17.4032C55.5033 12.9551 54.9568 8.49662 54.9568 8.49662L54.9533 8.50006ZM22.3177 26.6329V11.1744L37.1746 18.9294L22.3177 26.6329Z" fill="white"/>
</svg>
