<svg width="391" height="82" viewBox="0 0 391 82" fill="none" xmlns="http://www.w3.org/2000/svg">
<path d="M354.822 2.57741C352.965 1.50561 350.678 1.50562 348.822 2.57741L319.892 19.2798C318.036 20.3516 316.892 22.3324 316.892 24.476V57.8808C316.892 60.0244 318.036 62.0052 319.892 63.077L348.822 79.7794C350.678 80.8512 352.965 80.8512 354.822 79.7794L383.751 63.077C385.608 62.0052 386.751 60.0244 386.751 57.8808V24.476C386.751 22.3324 385.608 20.3516 383.751 19.2798L354.822 2.57741Z" stroke="white" stroke-width="2"/>
<path d="M354.518 54.9352L364.446 58.3169C365.442 58.6573 366.305 59.2869 366.915 60.1192C367.525 60.9515 367.853 61.9457 367.855 62.9653V66.2154H369.539V62.9653C369.537 61.6096 369.101 60.2876 368.289 59.1809C367.478 58.0742 366.331 57.237 365.007 56.7845L354.662 53.2614C354.558 53.2265 354.447 53.212 354.336 53.2185C354.226 53.2251 354.118 53.2526 354.018 53.2995C353.928 53.2289 353.84 53.1565 353.754 53.0818C354.468 53.1657 355.187 53.2102 355.907 53.215H356.066C356.82 53.2119 357.556 52.9998 358.188 52.6039C358.82 52.208 359.321 51.6451 359.631 50.9822L361.471 52.2506C361.597 52.3373 361.745 52.3889 361.899 52.3997C362.054 52.4105 362.208 52.3801 362.346 52.3119C362.483 52.2436 362.598 52.1402 362.679 52.0128C362.76 51.8855 362.802 51.7392 362.803 51.59V49.991C363.508 50.0627 364.188 50.2835 364.795 50.6379C365.401 50.9922 365.919 51.4713 366.312 52.041C366.381 52.1415 366.472 52.2261 366.578 52.2887C366.685 52.3512 366.804 52.3901 366.929 52.4025C366.957 52.4025 366.985 52.4066 367.013 52.4066C367.236 52.4065 367.45 52.3209 367.608 52.1685L370.134 49.731C370.279 49.5924 370.366 49.4081 370.381 49.2121C370.395 49.0161 370.335 48.8217 370.212 48.6649C369.347 47.5575 368.228 46.6585 366.942 46.0383C365.657 45.418 364.24 45.0934 362.803 45.0898V43.4648C362.802 43.3156 362.76 43.1693 362.679 43.042C362.598 42.9146 362.483 42.8112 362.346 42.7429C362.208 42.6747 362.054 42.6443 361.899 42.6551C361.745 42.6659 361.597 42.7175 361.471 42.8042L361.099 43.0602C361.106 42.8619 361.118 42.6645 361.118 42.4662C361.119 40.905 360.921 39.3496 360.529 37.8348L360.276 36.8639C360.27 35.2304 360.127 33.6001 359.849 31.9887L359.485 29.8762L359.78 29.5195C361.733 27.1579 362.799 24.2271 362.803 21.2058C362.804 20.1707 362.539 19.1515 362.033 18.239C361.527 17.3264 360.795 16.5489 359.902 15.9756C359.794 15.9068 359.671 15.8629 359.543 15.8471C359.415 15.8314 359.285 15.8443 359.163 15.8848C359.041 15.9254 358.93 15.9924 358.839 16.0809C358.748 16.1693 358.68 16.2767 358.639 16.3948C358.428 16.9997 358.056 17.5402 357.56 17.962C357.064 18.3837 356.462 18.6716 355.814 18.7967L355.417 18.873C352.86 19.3541 350.21 19.0076 347.877 17.8874C347.321 17.619 346.709 17.4746 346.087 17.4648C345.465 17.455 344.848 17.5801 344.283 17.8309C343.718 18.0817 343.218 18.4518 342.821 18.9139C342.424 19.3759 342.139 19.9181 341.988 20.5005L341.936 20.7142C340.662 20.742 339.414 21.065 338.297 21.6561C337.179 22.2472 336.226 23.089 335.517 24.1104C334.807 25.1318 334.363 26.3028 334.221 27.5247C334.08 28.7465 334.245 29.9833 334.703 31.1307L337.204 37.4156C336.792 37.6698 336.452 38.0201 336.217 38.4343C335.981 38.8485 335.858 39.3133 335.857 39.7857C335.858 40.728 336.086 41.6572 336.522 42.5003L338.095 45.54C338.278 45.8938 338.559 46.1913 338.908 46.3989C339.256 46.6065 339.658 46.716 340.067 46.7149C340.511 46.7161 340.947 46.604 341.33 46.3899L341.639 47.8841C341.846 48.8808 341.764 49.913 341.402 50.8677C341.041 51.8223 340.414 52.6626 339.591 53.2963C339.494 53.2494 339.388 53.2215 339.279 53.2142C339.171 53.207 339.062 53.2205 338.959 53.2541L333.907 54.8791L334.439 56.4229L339.081 54.9303C341.344 56.4572 344.038 57.2766 346.799 57.2774C349.56 57.2783 352.254 56.4607 354.518 54.9352ZM361.96 46.7149H362.803C363.856 46.7175 364.897 46.9309 365.861 47.3416C366.825 47.7524 367.69 48.3515 368.401 49.1013L367.087 50.3712C366.478 49.7308 365.738 49.2196 364.913 48.8699C364.089 48.5202 363.198 48.3397 362.297 48.3399H361.96C361.737 48.3399 361.523 48.4255 361.365 48.5779C361.207 48.7303 361.118 48.9369 361.118 49.1524V50.0113L357.515 47.5274L361.118 45.0435V45.9024C361.118 46.1179 361.207 46.3245 361.365 46.4769C361.523 46.6293 361.737 46.7149 361.96 46.7149ZM335.857 28.3795C335.859 26.7781 336.519 25.2429 337.693 24.1105C338.866 22.9782 340.457 22.3412 342.117 22.3392H342.593C342.781 22.3394 342.964 22.2788 343.112 22.1672C343.26 22.0556 343.366 21.8993 343.411 21.7234L343.625 20.8946C343.715 20.5482 343.884 20.2258 344.12 19.951C344.356 19.6763 344.654 19.4562 344.99 19.3071C345.326 19.1579 345.692 19.0836 346.062 19.0895C346.432 19.0953 346.796 19.1813 347.127 19.341C349.794 20.6236 352.825 21.0207 355.75 20.4704L356.15 20.3892C356.892 20.2451 357.595 19.9531 358.214 19.532C358.832 19.1109 359.353 18.5698 359.743 17.9435C360.627 18.8147 361.121 19.9863 361.118 21.2058C361.115 23.8583 360.18 26.4313 358.465 28.5047L358.187 28.8394H355.091C351.923 28.8391 348.776 28.3453 345.771 27.3769C345.312 27.2292 344.825 27.1794 344.345 27.2308C343.864 27.2821 343.401 27.4335 342.987 27.6744C342.573 27.9154 342.218 28.2401 341.946 28.6263C341.675 29.0124 341.493 29.4508 341.415 29.9111C341.079 31.8569 340.91 33.8261 340.909 35.7987V37.8495C340.642 37.5761 340.321 37.3574 339.965 37.2063C339.608 37.0553 339.224 36.975 338.835 36.9703L336.278 30.5457C336.001 29.8549 335.858 29.1205 335.857 28.3795ZM341.069 54.2055C341.997 53.3737 342.688 52.3262 343.077 51.1633C343.466 50.0003 343.54 48.7605 343.291 47.5623L342.577 44.1148C342.535 43.9173 342.419 43.7418 342.251 43.6223C342.083 43.5028 341.875 43.4478 341.667 43.4681C341.459 43.4883 341.267 43.5824 341.127 43.7319C340.987 43.8814 340.909 44.0758 340.909 44.2773C340.909 44.4928 340.821 44.6995 340.663 44.8519C340.505 45.0042 340.291 45.0898 340.067 45.0898C339.971 45.09 339.876 45.0641 339.793 45.015C339.711 44.9659 339.645 44.8956 339.602 44.812L338.028 41.7739C337.709 41.1563 337.542 40.4758 337.541 39.7857C337.541 39.5162 337.635 39.2545 337.809 39.0431C337.982 38.8318 338.224 38.6831 338.496 38.6212C338.768 38.5593 339.054 38.5879 339.306 38.7022C339.559 38.8165 339.765 39.0099 339.89 39.2511L340.998 41.3904C341.083 41.5544 341.222 41.6859 341.394 41.7637C341.566 41.8414 341.76 41.8609 341.945 41.8188C342.13 41.7768 342.294 41.6757 342.412 41.532C342.53 41.3883 342.594 41.2104 342.593 41.0272V35.7987C342.594 33.9157 342.755 32.0359 343.075 30.1785C343.115 29.95 343.205 29.7326 343.34 29.5411C343.475 29.3497 343.652 29.1887 343.857 29.0692C344.063 28.9498 344.293 28.8747 344.531 28.8492C344.77 28.8237 345.011 28.8484 345.239 28.9215C348.416 29.9446 351.742 30.4659 355.091 30.4653H357.879L358.189 32.2577C358.457 33.8133 358.592 35.3876 358.592 36.9646C358.592 37.0312 358.601 37.0975 358.618 37.1621L358.894 38.2273C359.253 39.6137 359.434 41.0372 359.434 42.4662C359.432 43.0713 359.396 43.6758 359.328 44.2773L355.577 46.8636C355.468 46.9388 355.379 47.0379 355.318 47.1528C355.257 47.2677 355.225 47.395 355.225 47.5241C355.225 47.6533 355.257 47.7806 355.318 47.8955C355.379 48.0104 355.468 48.1095 355.577 48.1847L358.215 50.0032C358.085 50.4577 357.805 50.8588 357.417 51.1453C357.029 51.4318 356.555 51.588 356.066 51.59H355.907C351.855 51.5879 347.931 50.217 344.817 47.7151L343.738 48.9648C345.921 50.7136 348.481 51.97 351.232 52.6422C351.589 53.2192 352.028 53.7451 352.536 54.2047C350.785 55.1537 348.81 55.6522 346.801 55.6522C344.792 55.6522 342.818 55.1537 341.066 54.2047L341.069 54.2055Z" fill="white"/>
<path d="M198.108 2.57729C196.252 1.50549 193.965 1.50549 192.108 2.57729L163.179 19.2797C161.322 20.3515 160.179 22.3323 160.179 24.4759V57.8807C160.179 60.0243 161.322 62.0051 163.179 63.0769L192.108 79.7793C193.965 80.8511 196.252 80.8511 198.108 79.7793L227.038 63.0769C228.894 62.0051 230.038 60.0243 230.038 57.8807V24.4759C230.038 22.3323 228.894 20.3515 227.038 19.2797L198.108 2.57729Z" stroke="white" stroke-width="2"/>
<path fill-rule="evenodd" clip-rule="evenodd" d="M205.982 59.7643C205.676 60.1647 205.533 60.2493 205.151 60.7662C204.515 61.5579 205.325 62.7601 205.729 62.5708C206.2 62.4006 206.505 61.4942 207.019 61.1985C207.282 61.062 207.982 60.0701 208.638 59.3957C209.12 58.867 209.469 58.635 209.928 58.0871C210.704 57.158 210.868 56.4518 211.546 55.4599C211.962 54.943 212.258 54.7846 212.64 54.1513C214.663 50.4584 214.072 48.8031 216.008 46.1658C216.597 45.3859 217.264 45.1957 218.204 44.7316C219.079 38.5798 216.181 35.1409 216.204 35.1299C213.765 36.5014 212.453 37.061 209.928 36.9336C208.977 36.9236 208.473 36.5332 207.534 36.6169C206.658 36.6488 206.212 36.9646 205.336 37.2503C203.992 37.6507 203.259 38.0093 201.849 38.4315C200.952 38.6745 200.384 38.6845 199.454 38.9903C198.656 39.3179 199.039 39.054 198.481 39.6764C197.759 40.4472 197.934 41.0478 197.256 42.3674C196.414 44.0973 196.513 44.3294 196.994 44.5405C196.677 45.426 196.601 46.0175 196.677 46.9775C196.765 47.7056 196.447 48.2115 197.256 48.7921C198.361 49.5829 200.679 51.4403 201.269 51.4712C202.155 51.4403 204.735 51.5349 206.046 50.6586C206.341 50.4802 206.429 50.2991 206.178 50.9753C206.123 51.0608 202.908 53.476 202.559 53.4651C198.47 53.5925 199.837 53.8136 199.586 53.719C199.377 53.719 197.409 51.3966 196.218 52.2202C195.769 52.4841 195.562 52.7371 195.387 53.213C195.54 53.5188 196.261 54.0029 196.929 54.4052C197.892 54.9958 197.979 55.6182 198.941 55.8394C200.111 56.0933 201.357 55.924 202.101 56.0195C202.386 56.0933 204.965 55.3643 206.572 54.5317C208.06 53.7927 204.529 55.9549 203.665 57.0206C201.062 57.8114 201.795 57.8432 200.559 58.0862C199.411 58.3392 199.466 58.2755 198.679 58.5194C197.87 58.7087 197.204 59.7752 197.968 60.334C198.428 60.7025 199.86 60.1856 201.27 60.1447C201.894 60.1338 204.44 59.0044 205.021 58.7087C206.464 57.9606 207.525 56.9259 208.378 56.3353C209.556 55.5445 207.042 58.5194 205.982 59.7643ZM198.099 44.6033C198.962 45.2676 199.4 47.2515 199.389 47.2305C200.974 47.7156 201.979 48.7284 201.979 48.7284C204.418 47.4198 204.474 48.0104 205.534 47.2305C206.409 46.6499 206.366 46.4707 206.824 44.9209C207.25 43.6642 205.741 43.7806 204.495 41.491C202.33 42.2818 201.161 41.9242 200.428 41.8605C200.1 41.8186 200.154 43.0945 198.099 44.6033ZM185.426 28.3248C185.733 27.9025 185.874 27.8179 186.269 27.3219C186.881 26.5093 186.083 25.3072 185.689 25.4546C185.208 25.6657 184.902 26.573 184.322 26.8897C184.114 27.0053 183.415 27.9972 182.77 28.6943C182.289 29.2011 181.939 29.4332 181.48 30.0129C180.693 30.9093 180.539 31.6163 179.861 32.5664C179.446 33.1352 179.14 33.2835 178.767 33.9378C176.745 37.6098 177.324 39.2651 175.399 41.8614C174.81 42.695 174.142 42.8742 173.202 43.3593C172.328 49.5001 175.215 52.9291 175.203 52.9082C177.641 51.5668 178.943 51.008 181.48 51.0927C182.43 51.1464 182.934 51.5359 183.874 51.4722C184.749 51.4194 185.197 51.1036 186.071 50.8497C187.416 50.4174 188.149 50.0589 189.494 49.6576C190.456 49.3937 191.024 49.3827 191.953 49.0342C192.752 48.7503 192.369 49.0142 192.927 48.4108C193.637 47.62 193.474 47.0194 194.086 45.7326C194.993 43.969 194.895 43.7388 194.414 43.5486C194.72 42.6413 194.807 42.0607 194.731 41.1115C194.633 40.3726 194.961 39.8557 194.152 39.3079C193.047 38.4843 190.729 36.6278 190.15 36.6169C189.253 36.6278 186.673 36.5323 185.361 37.3659C185.066 37.587 184.978 37.7663 185.23 37.1229C185.285 37.0073 188.5 34.5912 188.849 34.5594C192.938 34.4747 191.571 34.2536 191.823 34.3701C192.031 34.3491 193.999 36.6697 195.191 35.868C195.628 35.5841 195.847 35.3302 196.033 34.877C195.869 34.5503 195.148 34.0634 194.481 33.6948C193.519 33.0733 193.421 32.4508 192.469 32.2497C191.299 31.9758 190.042 32.1442 189.309 32.0067C189.025 31.9749 186.444 32.7038 184.848 33.5046C183.339 34.2754 186.882 32.1123 187.756 31.0048C190.347 30.255 189.604 30.224 190.861 29.9492C191.999 29.7271 191.944 29.7908 192.731 29.5697C193.529 29.3586 194.206 28.303 193.442 27.7023C192.972 27.3647 191.551 27.8816 190.151 27.8916C189.517 27.9335 186.969 29.0628 186.39 29.3795C184.947 30.1075 183.886 31.1413 183.034 31.6901C181.84 32.5236 184.365 29.5588 185.426 28.3248ZM193.31 43.4849C192.446 42.7996 192.008 40.8167 192.019 40.8058C190.434 40.3517 189.428 39.3388 189.428 39.3707C186.99 40.6474 186.925 40.0568 185.874 40.8058C184.989 41.4182 185.043 41.6075 184.584 43.1063C184.157 44.4149 185.655 44.2875 186.913 46.5453C189.078 45.7845 190.248 46.144 190.98 46.2277C191.308 46.2495 191.254 44.9728 193.31 43.4849Z" fill="white"/>
<path d="M42.1784 2.57735C40.3219 1.50555 38.0348 1.50556 36.1784 2.57735L7.2489 19.2798C5.3925 20.3516 4.24891 22.3323 4.24891 24.4759V57.8808C4.24891 60.0244 5.3925 62.0051 7.24891 63.0769L36.1784 79.7794C38.0348 80.8512 40.322 80.8512 42.1784 79.7794L71.1078 63.0769C72.9642 62.0051 74.1078 60.0244 74.1078 57.8808V24.4759C74.1078 22.3323 72.9642 20.3516 71.1078 19.2798L42.1784 2.57735Z" stroke="white" stroke-width="2"/>
<path d="M50.8445 25.5536C50.8454 24.7806 50.5829 24.0287 50.0973 23.4138C49.6118 22.799 48.9301 22.3552 48.1575 22.151C47.3848 21.9467 46.564 21.9933 45.8214 22.2835C45.0789 22.5738 44.4559 23.0916 44.0484 23.7572L43.6602 22.8203C43.4588 22.334 43.1074 21.919 42.6535 21.6317C42.1997 21.3444 41.6653 21.1985 41.1228 21.2139C40.5802 21.2292 40.0556 21.405 39.62 21.7175C39.1844 22.0299 38.8587 22.464 38.6871 22.9609C38.426 23.7229 38.273 24.5155 38.2324 25.3172C38.0271 25.289 37.82 25.2751 37.6127 25.2758C36.6384 25.2779 35.6947 25.6046 34.9412 26.2006C34.1877 26.7966 33.6706 27.6255 33.4774 28.547L33.3031 29.3855C32.2405 29.5305 31.2531 29.9977 30.4835 30.7194C29.7139 31.4411 29.2019 32.3802 29.0213 33.401C27.8697 33.4465 26.7809 33.9202 25.9831 34.723C25.1853 35.5257 24.7402 36.5951 24.7412 37.7073C24.7409 39.7844 25.0878 41.8479 25.7685 43.8183C26.8172 46.8535 28.3302 49.7203 30.2574 52.3238L30.8149 53.077C31.3346 53.7783 31.5613 54.6429 31.4498 55.4983L30.6422 61.736L32.3129 61.9375L33.1212 55.699C33.2843 54.4391 32.9504 53.1661 32.1857 52.1328L31.6283 51.3796C29.7981 48.908 28.3616 46.186 27.3667 43.304C27.0471 42.3767 26.8077 41.4255 26.651 40.4602L28.4336 42.7531C28.8729 43.3188 29.504 43.7178 30.217 43.8804C30.93 44.043 31.6795 43.9589 32.3348 43.6428L32.4476 43.5892C33.0353 43.3079 33.5022 42.8366 33.7671 42.2574C34.024 42.3082 34.2854 42.3354 34.5476 42.3387C35.5163 42.3381 36.4454 41.9678 37.1322 41.3087C37.8191 40.6496 38.2079 39.7552 38.2139 38.8205C38.4642 38.917 38.7249 38.9863 38.9911 39.0269L38.5246 39.9271C37.4413 42.018 37.1109 44.3975 37.5857 46.6898L38.2307 49.8139L39.8811 49.4954L39.2344 46.3745C38.8332 44.4367 39.1126 42.4251 40.0285 40.6576L40.9421 38.8928C41.384 38.7633 41.8036 38.5717 42.1875 38.324C42.4435 38.1577 42.6803 37.9654 42.894 37.7504C43.4025 38.0936 44.008 38.278 44.6286 38.2785C45.3902 38.2817 46.1326 38.0475 46.7452 37.6108C47.3579 37.1741 47.808 36.5582 48.0287 35.8548L48.4211 34.6246L50.8883 37.6001C51.4032 38.2235 51.6846 38.9967 51.6866 39.7939C51.6876 40.2862 51.5803 40.773 51.3716 41.2223L49.7086 44.8331C48.881 46.6349 47.715 48.2735 46.2697 49.666C45.4279 50.4828 44.9538 51.587 44.9502 52.739C44.9502 52.7926 44.9561 52.8454 44.9578 52.9015H44.621C42.8076 52.9028 41.0346 52.3848 39.5266 51.4129L38.592 52.765C40.3745 53.9137 42.4699 54.5267 44.6134 54.5265H45.0959L45.7923 61.9131L47.4764 61.7653L46.6495 52.99C46.6343 52.9015 46.6343 52.8202 46.6343 52.739C46.6365 52.0172 46.9333 51.3254 47.4604 50.8133C49.0527 49.2802 50.3373 47.4761 51.2495 45.4921L52.9126 41.8804C53.2158 41.2241 53.3719 40.5133 53.3707 39.7947C53.369 38.6274 52.9572 37.4952 52.2027 36.5828L49.0198 32.7436L50.3966 28.4275C50.6936 27.4965 50.8446 26.5278 50.8445 25.5536ZM39.898 25.7755C39.8979 24.9937 40.0284 24.217 40.2845 23.4752C40.3469 23.294 40.4655 23.1358 40.6242 23.0218C40.783 22.9079 40.9742 22.8437 41.172 22.8382C41.3697 22.8326 41.5645 22.8858 41.7299 22.9906C41.8953 23.0954 42.0233 23.2467 42.0965 23.424L43.2661 26.2508L42.3896 29.9169L41.5248 27.8319C41.2014 27.0487 40.6326 26.3823 39.898 25.9258V25.7755ZM31.6973 42.1372L31.5845 42.1908C31.2808 42.331 30.9366 42.3671 30.6087 42.2933C30.2809 42.2194 29.9889 42.04 29.7808 41.7846L27.941 39.4136L26.6383 40.3561C26.4985 39.4796 26.4273 38.5942 26.4253 37.7073C26.4253 36.9962 26.7181 36.3142 27.2392 35.8113C27.7603 35.3085 28.4671 35.026 29.204 35.026H29.2706L32.1975 40.6755C32.2639 40.8035 32.3035 40.9429 32.3141 41.0857C32.3246 41.2285 32.3059 41.3719 32.259 41.5078C32.2121 41.6436 32.1379 41.7692 32.0406 41.8773C31.9434 41.9855 31.825 42.074 31.6923 42.138L31.6973 42.1372ZM34.5476 40.7137C34.3423 40.7109 34.1381 40.6836 33.9397 40.6324C33.894 40.3948 33.8156 40.1641 33.7064 39.9466L30.6524 34.051C30.6902 33.3121 30.9889 32.608 31.4989 32.0557C32.0088 31.5033 32.6993 31.1359 33.4555 31.0146L36.3883 38.0876C36.5091 38.378 36.5542 38.6925 36.5197 39.0037C36.4852 39.3148 36.3722 39.613 36.1905 39.8722C36.0089 40.1314 35.7641 40.3436 35.4777 40.4903C35.1912 40.637 34.8719 40.7137 34.5476 40.7137ZM41.2537 36.9696C40.7526 37.2923 40.1636 37.4642 39.5612 37.4636C39.2667 37.4642 38.9759 37.4005 38.7105 37.2774C38.4451 37.1543 38.212 36.9749 38.0286 36.7526L37.2649 35.832L34.8786 30.0696L35.1312 28.8622C35.2381 28.3456 35.5151 27.8762 35.921 27.5239C36.3269 27.1716 36.8399 26.9552 37.3835 26.9071C37.9272 26.8589 38.4724 26.9816 38.9379 27.2567C39.4035 27.5319 39.7644 27.9448 39.967 28.434L41.7791 32.8046C41.6511 33.6429 41.5852 34.489 41.5821 35.3364C41.5884 35.7178 41.6713 36.0945 41.8263 36.4455C41.6637 36.6469 41.4707 36.8236 41.2537 36.9696ZM48.7874 27.9506L46.4196 35.3754C46.3029 35.7456 46.0657 36.0697 45.7431 36.2995C45.4204 36.5293 45.0296 36.6526 44.6286 36.6511C44.2673 36.6508 43.9209 36.5123 43.6654 36.2658C43.41 36.0193 43.2664 35.685 43.2661 35.3364C43.266 34.1118 43.4101 32.8911 43.6956 31.6979L45.2677 25.1254C45.3758 24.6694 45.6544 24.2678 46.05 23.9974C46.4457 23.7271 46.9308 23.6069 47.4125 23.6599C47.8942 23.7129 48.3388 23.9353 48.6612 24.2847C48.9837 24.634 49.1614 25.0858 49.1604 25.5536C49.1605 26.3658 49.0348 27.1743 48.7874 27.9506Z" fill="white"/>
<path d="M59.979 21.5951L55.7688 15.0949C55.6844 14.9634 55.5628 14.8579 55.4184 14.7908C55.274 14.7236 55.1127 14.6977 54.9536 14.7159C54.7944 14.7342 54.6439 14.7959 54.5198 14.8938C54.3958 14.9918 54.3032 15.1218 54.2531 15.2688L53.7681 16.6728L51.7935 15.3378C48.0603 12.8157 43.6133 11.4628 39.0559 11.4628C34.4986 11.4628 30.0516 12.8157 26.3184 15.3378L24.3413 16.6728L23.8562 15.2688C23.8061 15.1218 23.7136 14.9918 23.5895 14.8938C23.4655 14.7959 23.315 14.7342 23.1558 14.7159C22.9966 14.6977 22.8354 14.7236 22.6909 14.7908C22.5465 14.8579 22.425 14.9634 22.3406 15.0949L18.1304 21.5951C18.059 21.7053 18.0161 21.8304 18.0052 21.96C17.9943 22.0895 18.0158 22.2197 18.0679 22.3396C18.1199 22.4594 18.201 22.5655 18.3043 22.6489C18.4077 22.7323 18.5302 22.7905 18.6617 22.8187L26.2401 24.4438C26.3855 24.475 26.5369 24.4684 26.6789 24.4247C26.8208 24.381 26.9482 24.3017 27.0481 24.195C27.1479 24.0883 27.2166 23.9579 27.2471 23.8171C27.2777 23.6764 27.2689 23.5304 27.2219 23.394L26.5567 21.4683L27.8021 20.4177C30.9166 17.7877 34.9147 16.338 39.0534 16.338C43.1922 16.338 47.1902 17.7877 50.3048 20.4177L51.5502 21.4683L50.885 23.394C50.8379 23.5304 50.8292 23.6764 50.8597 23.8171C50.8903 23.9579 50.9589 24.0883 51.0588 24.195C51.1586 24.3017 51.286 24.381 51.4279 24.4247C51.5699 24.4684 51.7213 24.475 51.8668 24.4438L59.4452 22.8187C59.5766 22.7905 59.6992 22.7323 59.8025 22.6489C59.9058 22.5655 59.9869 22.4594 60.039 22.3396C60.091 22.2197 60.1125 22.0895 60.1017 21.96C60.0908 21.8304 60.0479 21.7053 59.9765 21.5951H59.979ZM52.9555 22.5465L53.3277 21.4699C53.3801 21.3182 53.3848 21.1548 53.3414 21.0005C53.2979 20.8461 53.2082 20.7075 53.0835 20.6022L51.4163 19.1949C47.9947 16.3056 43.6026 14.7131 39.0559 14.7131C34.5093 14.7131 30.1172 16.3056 26.6956 19.1949L25.0284 20.6022C24.9037 20.7075 24.814 20.8461 24.7705 21.0005C24.7271 21.1548 24.7318 21.3182 24.7842 21.4699L25.1564 22.5465L20.1942 21.4821L22.8256 17.4195L23.1018 18.2198C23.1435 18.3396 23.2136 18.4484 23.3066 18.5374C23.3995 18.6264 23.5127 18.6933 23.6371 18.7328C23.7615 18.7722 23.8937 18.7831 24.0233 18.7646C24.1528 18.7461 24.2761 18.6987 24.3834 18.6261L27.2842 16.6687C30.7345 14.338 34.8442 13.0879 39.0559 13.0879C43.2677 13.0879 47.3774 14.338 50.8277 16.6687L53.7302 18.6285C53.8374 18.7011 53.9607 18.7485 54.0903 18.767C54.2198 18.7856 54.3521 18.7747 54.4765 18.7352C54.6009 18.6958 54.7141 18.6289 54.807 18.5398C54.8999 18.4508 54.9701 18.3421 55.0118 18.2223L55.288 17.4219L57.9194 21.4846L52.9555 22.5465Z" fill="white"/>
<line x1="230.369" y1="43.0291" x2="316.561" y2="43.0291" stroke="white"/>
<line x1="74.439" y1="43.0291" x2="160.631" y2="43.0291" stroke="white"/>
</svg>
