<svg width="27" height="21" viewBox="0 0 27 21" fill="none" xmlns="http://www.w3.org/2000/svg">
<path d="M5.90715 9.38886L21.0928 9.38886C21.5652 9.38886 21.9364 9.87775 21.9364 10.5C21.9364 11.1222 21.5652 11.6111 21.0928 11.6111L5.90715 11.6111C5.43471 11.6111 5.06351 11.1222 5.06351 10.5C5.06351 9.87775 5.43471 9.38886 5.90715 9.38886Z" fill="white"/>
<path d="M16.8746 1.61114C16.9853 1.60936 17.095 1.6381 17.1967 1.69551C17.2984 1.75292 17.3898 1.83772 17.4652 1.94447L23.3707 9.72225C23.7081 10.1667 23.7081 10.8556 23.3707 11.3L17.4652 19.0556C17.1277 19.5 16.6047 19.5 16.2672 19.0556C15.9297 18.6111 15.9297 17.9222 16.2672 17.4778L21.5822 10.4778L16.2672 3.4778C15.9297 3.03336 15.9297 2.34447 16.2672 1.90003C16.4359 1.6778 16.6553 1.56669 16.8577 1.56669L16.8746 1.61114Z" fill="white"/>
</svg>
