<svg width="80" height="72" viewBox="0 0 80 72" fill="none" xmlns="http://www.w3.org/2000/svg">
<circle cx="61.9579" cy="67.1622" r="3.5" transform="rotate(-163.811 61.9579 67.1622)" fill="#363636" fill-opacity="0.5"/>
<circle cx="65.3036" cy="55.6381" r="3.5" transform="rotate(-163.811 65.3036 55.6381)" fill="#363636" fill-opacity="0.5"/>
<circle cx="68.6493" cy="44.1139" r="3.5" transform="rotate(-163.811 68.6493 44.1139)" fill="#363636" fill-opacity="0.5"/>
<circle cx="71.995" cy="32.5897" r="3.5" transform="rotate(-163.811 71.995 32.5897)" fill="#363636" fill-opacity="0.5"/>
<circle cx="75.3407" cy="21.0656" r="3.5" transform="rotate(-163.811 75.3407 21.0656)" fill="#363636" fill-opacity="0.5"/>
<circle cx="47.5526" cy="62.9801" r="3.5" transform="rotate(-163.811 47.5526 62.9801)" fill="#363636" fill-opacity="0.5"/>
<circle cx="50.8983" cy="51.4559" r="3.5" transform="rotate(-163.811 50.8983 51.4559)" fill="#363636" fill-opacity="0.5"/>
<circle cx="54.244" cy="39.9318" r="3.5" transform="rotate(-163.811 54.244 39.9318)" fill="#363636" fill-opacity="0.5"/>
<circle cx="57.5897" cy="28.4076" r="3.5" transform="rotate(-163.811 57.5897 28.4076)" fill="#363636" fill-opacity="0.5"/>
<circle cx="60.9354" cy="16.8835" r="3.5" transform="rotate(-163.811 60.9354 16.8835)" fill="#363636" fill-opacity="0.5"/>
<circle cx="33.1476" cy="58.7979" r="3.5" transform="rotate(-163.811 33.1476 58.7979)" fill="#363636" fill-opacity="0.5"/>
<circle cx="36.4933" cy="47.2738" r="3.5" transform="rotate(-163.811 36.4933 47.2738)" fill="#363636" fill-opacity="0.5"/>
<circle cx="39.839" cy="35.7496" r="3.5" transform="rotate(-163.811 39.839 35.7496)" fill="#363636" fill-opacity="0.5"/>
<circle cx="43.1847" cy="24.2255" r="3.5" transform="rotate(-163.811 43.1847 24.2255)" fill="#363636" fill-opacity="0.5"/>
<circle cx="46.5304" cy="12.7013" r="3.5" transform="rotate(-163.811 46.5304 12.7013)" fill="#363636" fill-opacity="0.5"/>
<circle cx="18.7423" cy="54.6158" r="3.5" transform="rotate(-163.811 18.7423 54.6158)" fill="#363636" fill-opacity="0.5"/>
<circle cx="22.088" cy="43.0916" r="3.5" transform="rotate(-163.811 22.088 43.0916)" fill="#363636" fill-opacity="0.5"/>
<circle cx="25.4337" cy="31.5675" r="3.5" transform="rotate(-163.811 25.4337 31.5675)" fill="#363636" fill-opacity="0.5"/>
<circle cx="28.7794" cy="20.0433" r="3.5" transform="rotate(-163.811 28.7794 20.0433)" fill="#363636" fill-opacity="0.5"/>
<circle cx="32.1251" cy="8.51919" r="3.5" transform="rotate(-163.811 32.1251 8.51919)" fill="#363636" fill-opacity="0.5"/>
<circle cx="4.33703" cy="50.4337" r="3.5" transform="rotate(-163.811 4.33703 50.4337)" fill="#363636" fill-opacity="0.5"/>
<circle cx="7.68273" cy="38.9095" r="3.5" transform="rotate(-163.811 7.68273 38.9095)" fill="#363636" fill-opacity="0.5"/>
<circle cx="11.0284" cy="27.3854" r="3.5" transform="rotate(-163.811 11.0284 27.3854)" fill="#363636" fill-opacity="0.5"/>
<circle cx="14.3741" cy="15.8612" r="3.5" transform="rotate(-163.811 14.3741 15.8612)" fill="#363636" fill-opacity="0.5"/>
<circle cx="17.7198" cy="4.33706" r="3.5" transform="rotate(-163.811 17.7198 4.33706)" fill="#363636" fill-opacity="0.5"/>
</svg>
