<svg width="44" height="43" viewBox="0 0 44 43" fill="none" xmlns="http://www.w3.org/2000/svg">
<path d="M24.0885 0.0040812C25.6403 -0.00187329 27.192 0.0137222 28.7433 0.050863L29.1558 0.065748C29.6322 0.0827595 30.1021 0.104024 30.6699 0.129541C32.9324 0.235863 34.4762 0.593105 35.8307 1.11833C37.2342 1.65845 38.4165 2.38994 39.5988 3.57224C40.6798 4.63462 41.5164 5.91972 42.0505 7.33816C42.5758 8.6927 42.933 10.2386 43.0393 12.5012C43.0649 13.0668 43.0861 13.5389 43.1031 14.0152L43.1159 14.4277C43.1537 15.9783 43.17 17.5293 43.1648 19.0803L43.1669 20.6667V23.4523C43.1722 25.004 43.1559 26.5558 43.118 28.1071L43.1053 28.5196C43.0882 28.9959 43.067 29.4659 43.0415 30.0336C42.9351 32.2962 42.5737 33.8399 42.0505 35.1945C41.5182 36.6144 40.6813 37.9006 39.5988 38.9625C38.5355 40.0434 37.2497 40.8801 35.8307 41.4143C34.4762 41.9395 32.9324 42.2968 30.6699 42.4031C30.1021 42.4286 29.6322 42.4499 29.1558 42.4669L28.7433 42.4797C27.192 42.5175 25.6403 42.5338 24.0885 42.5286L22.5022 42.5307H19.7187C18.167 42.5359 16.6152 42.5196 15.0639 42.4818L14.6514 42.469C14.1466 42.4507 13.6419 42.4295 13.1374 42.4052C10.8749 42.2989 9.33106 41.9374 7.9744 41.4143C6.55539 40.8813 5.27007 40.0445 4.20848 38.9625C3.12622 37.8999 2.28878 36.614 1.75457 35.1945C1.22934 33.8399 0.872098 32.2962 0.765776 30.0336C0.742094 29.5291 0.720829 29.0244 0.701983 28.5196L0.691351 28.1071C0.652147 26.5558 0.634425 25.0041 0.63819 23.4523V19.0803C0.632255 17.5293 0.647851 15.9783 0.684972 14.4277L0.699857 14.0152C0.716868 13.5389 0.738132 13.0668 0.76365 12.5012C0.869971 10.2365 1.22721 8.69483 1.75244 7.33816C2.28697 5.91902 3.12604 4.63428 4.2106 3.57437C5.27147 2.49149 6.55598 1.65329 7.9744 1.11833C9.33106 0.593105 10.8727 0.235863 13.1374 0.129541L14.6514 0.065748L15.0639 0.055116C16.6145 0.0159318 18.1655 -0.00179041 19.7166 0.00195492L24.0885 0.0040812ZM21.9026 10.6363C20.4938 10.6163 19.0951 10.8766 17.7879 11.4019C16.4806 11.9272 15.2907 12.7072 14.2875 13.6963C13.2842 14.6855 12.4875 15.8642 11.9438 17.1639C11.4 18.4637 11.12 19.8585 11.12 21.2674C11.12 22.6763 11.4 24.0711 11.9438 25.3709C12.4875 26.6706 13.2842 27.8493 14.2875 28.8385C15.2907 29.8276 16.4806 30.6075 17.7879 31.1328C19.0951 31.6582 20.4938 31.9184 21.9026 31.8985C24.7224 31.8985 27.4267 30.7783 29.4206 28.7844C31.4146 26.7905 32.5347 24.0862 32.5347 21.2663C32.5347 18.4465 31.4146 15.7422 29.4206 13.7482C27.4267 11.7543 24.7224 10.6363 21.9026 10.6363ZM21.9026 14.8891C22.75 14.8735 23.592 15.0269 24.3794 15.3404C25.1669 15.6538 25.884 16.1211 26.4888 16.7148C27.0937 17.3085 27.5741 18.0168 27.9022 18.7983C28.2302 19.5797 28.3992 20.4188 28.3994 21.2663C28.3995 22.1138 28.2308 22.9529 27.903 23.7345C27.5752 24.5161 27.095 25.2246 26.4903 25.8185C25.8857 26.4124 25.1687 26.8798 24.3814 27.1936C23.5941 27.5073 22.7521 27.661 21.9047 27.6456C20.2128 27.6456 18.5902 26.9735 17.3938 25.7772C16.1975 24.5808 15.5254 22.9582 15.5254 21.2663C15.5254 19.5744 16.1975 17.9518 17.3938 16.7555C18.5902 15.5591 20.2128 14.887 21.9047 14.887L21.9026 14.8891ZM33.0663 7.44661C32.3803 7.47407 31.7316 7.7659 31.2559 8.26097C30.7803 8.75605 30.5146 9.41598 30.5146 10.1025C30.5146 10.7891 30.7803 11.449 31.2559 11.9441C31.7316 12.4392 32.3803 12.731 33.0663 12.7584C33.7713 12.7584 34.4474 12.4784 34.9459 11.9799C35.4444 11.4814 35.7244 10.8054 35.7244 10.1004C35.7244 9.39545 35.4444 8.71936 34.9459 8.22088C34.4474 7.7224 33.7713 7.44236 33.0663 7.44236V7.44661Z" fill="#246f98"/>
</svg>
