<svg width="130" height="848" viewBox="0 0 130 848" fill="none" xmlns="http://www.w3.org/2000/svg">
<rect x="-392.432" width="591.213" height="547.679" rx="30" transform="rotate(27.9346 -392.432 0)" fill="#363636" fill-opacity="0.08"/>
<rect x="-392.432" y="87" width="591.213" height="547.679" rx="30" transform="rotate(27.9346 -392.432 87)" fill="#363636" fill-opacity="0.08"/>
<circle cx="-3.47388" cy="470.712" r="3.5" transform="rotate(30.0113 -3.47388 470.712)" fill="#6099BD"/>
<circle cx="9.51501" cy="478.215" r="3.5" transform="rotate(30.0113 9.51501 478.215)" fill="#6099BD"/>
<circle cx="3.51293" cy="488.606" r="3.5" transform="rotate(30.0113 3.51293 488.606)" fill="#6099BD"/>
<circle cx="-2.48914" cy="498.997" r="3.5" transform="rotate(30.0113 -2.48914 498.997)" fill="#6099BD"/>
<circle cx="22.5039" cy="485.718" r="3.5" transform="rotate(30.0113 22.5039 485.718)" fill="#6099BD"/>
<circle cx="16.5018" cy="496.109" r="3.5" transform="rotate(30.0113 16.5018 496.109)" fill="#6099BD"/>
<circle cx="10.4998" cy="506.5" r="3.5" transform="rotate(30.0113 10.4998 506.5)" fill="#6099BD"/>
<circle cx="4.4978" cy="516.891" r="3.5" transform="rotate(30.0113 4.4978 516.891)" fill="#6099BD"/>
<circle cx="-1.50428" cy="527.282" r="3.5" transform="rotate(30.0113 -1.50428 527.282)" fill="#6099BD"/>
<circle cx="35.4928" cy="493.22" r="3.5" transform="rotate(30.0113 35.4928 493.22)" fill="#6099BD"/>
<circle cx="29.4907" cy="503.611" r="3.5" transform="rotate(30.0113 29.4907 503.611)" fill="#6099BD"/>
<circle cx="23.4886" cy="514.002" r="3.5" transform="rotate(30.0113 23.4886 514.002)" fill="#6099BD"/>
<circle cx="17.4867" cy="524.393" r="3.5" transform="rotate(30.0113 17.4867 524.393)" fill="#6099BD"/>
<circle cx="11.4846" cy="534.784" r="3.5" transform="rotate(30.0113 11.4846 534.784)" fill="#6099BD"/>
<circle cx="48.4817" cy="500.723" r="3.5" transform="rotate(30.0113 48.4817 500.723)" fill="#6099BD"/>
<circle cx="42.4796" cy="511.114" r="3.5" transform="rotate(30.0113 42.4796 511.114)" fill="#6099BD"/>
<circle cx="36.4775" cy="521.505" r="3.5" transform="rotate(30.0113 36.4775 521.505)" fill="#6099BD"/>
<circle cx="30.4756" cy="531.896" r="3.5" transform="rotate(30.0113 30.4756 531.896)" fill="#6099BD"/>
<circle cx="24.4735" cy="542.287" r="3.5" transform="rotate(30.0113 24.4735 542.287)" fill="#6099BD"/>
</svg>
