<svg width="39" height="39" viewBox="0 0 39 39" fill="none" xmlns="http://www.w3.org/2000/svg">
<path d="M34.3841 0.00146484C35.512 0.00146484 36.5937 0.449534 37.3913 1.2471C38.1889 2.04467 38.6369 3.12641 38.6369 4.25434V34.0245C38.6369 35.1524 38.1889 36.2341 37.3913 37.0317C36.5937 37.8293 35.512 38.2773 34.3841 38.2773H4.61396C3.48603 38.2773 2.40429 37.8293 1.60672 37.0317C0.809153 36.2341 0.361084 35.1524 0.361084 34.0245V4.25434C0.361084 3.12641 0.809153 2.04467 1.60672 1.2471C2.40429 0.449534 3.48603 0.00146484 4.61396 0.00146484H34.3841ZM33.3209 32.9612V21.6911C33.3209 19.8526 32.5905 18.0894 31.2905 16.7893C29.9904 15.4893 28.2272 14.7589 26.3887 14.7589C24.5812 14.7589 22.476 15.8647 21.4553 17.5233V15.163H15.5226V32.9612H21.4553V22.4779C21.4553 20.8405 22.7737 19.5009 24.4111 19.5009C25.2006 19.5009 25.9579 19.8145 26.5162 20.3728C27.0744 20.9311 27.3881 21.6884 27.3881 22.4779V32.9612H33.3209ZM8.61166 11.8245C9.55912 11.8245 10.4678 11.4481 11.1377 10.7781C11.8077 10.1082 12.1841 9.1995 12.1841 8.25204C12.1841 6.27445 10.5892 4.65836 8.61166 4.65836C7.65856 4.65836 6.74449 5.03698 6.07054 5.71093C5.3966 6.38487 5.01798 7.29894 5.01798 8.25204C5.01798 10.2296 6.63407 11.8245 8.61166 11.8245ZM11.5674 32.9612V15.163H5.67718V32.9612H11.5674Z" fill="#246f98"/>
</svg>
