<svg width="56" height="39" viewBox="0 0 56 39" fill="none" xmlns="http://www.w3.org/2000/svg">
<path d="M54.6211 8.50152C54.6211 8.50152 54.0848 4.70996 52.4314 3.04621C50.3379 0.856524 47.9936 0.842774 46.9211 0.715586C39.2314 0.155274 27.6814 0.155273 27.6814 0.155273H27.6607C27.6607 0.155273 16.1142 0.155274 8.42106 0.715586C7.34513 0.846211 5.00419 0.856524 2.91075 3.04621C1.25731 4.70996 0.731377 8.50152 0.731377 8.50152C0.731377 8.50152 0.184814 12.9496 0.184814 17.4081V21.5778C0.184814 26.0259 0.731377 30.4843 0.731377 30.4843C0.731377 30.4843 1.26763 34.2759 2.91075 35.9431C5.00419 38.1328 7.75419 38.0606 8.98138 38.2943C13.3848 38.7137 27.6848 38.8409 27.6848 38.8409C27.6848 38.8409 39.2451 38.8203 46.9348 38.2703C48.0107 38.1431 50.3517 38.1293 52.4451 35.9396C54.0986 34.2759 54.6348 30.4809 54.6348 30.4809C54.6348 30.4809 55.1814 26.0328 55.1814 21.5743V17.4046C55.1711 12.9565 54.6245 8.49809 54.6245 8.49809L54.6211 8.50152ZM21.9854 26.6343V11.1759L36.8423 18.9309L21.9854 26.6343Z" fill="#246f98"/>
</svg>
